# xmcd CD database file
#
# Track frame offsets:
#	150
#	29145
#	50227
#	62652
#	76392
#	102935
#	122895
#	144170
#	166795
#	193777
#	207970
#	226527
#	245010
#	262820
#	276147
#	296895
#
# Disc length: 4263 seconds
#
# Revision: 0
# Processed by: cddbd v1.5.1PL0 Copyright (c) Steve Scherf et al.
# Submitted via: CDex 1.50beta10
#
DISCID=eb10a510
DTITLE=Stevie Ray Vaughan - We Are Called Double Trouble DISC 2 Westerly, RI, 11/22/79
DYEAR=1900
DGENRE=Blues
TTITLE0=Dirty Pool
TTITLE1=Pride and Joy
TTITLE2=Love Struck Baby
TTITLE3=Hideaway
TTITLE4=In The Open
TTITLE5=Rude Mood
TTITLE6=The Sky is Crying
TTITLE7=Love Me Darlin
TTITLE8=So Excited - You Can Have My Husband
TTITLE9=Ti-Ni-Nee-Ni-Nu
TTITLE10=I'll Change
TTITLE11=Oh, Yeah
TTITLE12=Natural Born Lover
TTITLE13=Hip Hip Baby
TTITLE14=If You Lose Me, You Lose a Good Thing
TTITLE15=Collins Shuffle
EXTD=
EXTT0=
EXTT1=
EXTT2=
EXTT3=
EXTT4=
EXTT5=
EXTT6=
EXTT7=
EXTT8=
EXTT9=
EXTT10=
EXTT11=
EXTT12=
EXTT13=
EXTT14=
EXTT15=
PLAYORDER=
